<svg xmlns="http://www.w3.org/2000/svg" viewBox="0 0 64 64" fill="none">
  <path d="M32 4L8 16v16c0 14.4 10.24 27.84 24 32 13.76-4.16 24-17.6 24-32V16L32 4z" 
        fill="#2563eb" stroke="#60a5fa" stroke-width="2" stroke-linejoin="round"/>
  <circle cx="32" cy="30" r="4" fill="#fff" opacity="0.95"/>
  <circle cx="32" cy="16" r="2.5" fill="#fff" opacity="0.8"/>
  <circle cx="32" cy="44" r="2.5" fill="#fff" opacity="0.8"/>
  <circle cx="20" cy="34" r="2.5" fill="#fff" opacity="0.8"/>
  <circle cx="44" cy="34" r="2.5" fill="#fff" opacity="0.8"/>
  <circle cx="22" cy="22" r="2" fill="#fff" opacity="0.6"/>
  <circle cx="42" cy="22" r="2" fill="#fff" opacity="0.6"/>
  <line x1="32" y1="16" x2="32" y2="26" stroke="#fff" stroke-width="1.5" opacity="0.5"/>
  <line x1="32" y1="34" x2="32" y2="44" stroke="#fff" stroke-width="1.5" opacity="0.5"/>
  <line x1="20" y1="34" x2="28" y2="30" stroke="#fff" stroke-width="1.5" opacity="0.5"/>
  <line x1="44" y1="34" x2="36" y2="30" stroke="#fff" stroke-width="1.5" opacity="0.5"/>
  <line x1="22" y1="22" x2="28" y2="27" stroke="#fff" stroke-width="1.5" opacity="0.4"/>
  <line x1="42" y1="22" x2="36" y2="27" stroke="#fff" stroke-width="1.5" opacity="0.4"/>
</svg>
